<svg xmlns="http://www.w3.org/2000/svg" version="1.1" viewBox="0 0 550 454">
<path fill="rgb(0,0,0)" fill-opacity="1.000" d="M 317.00 66.36 A 1.44 1.43 -10.6 0 1 318.87 67.63 Q 319.70 79.70 317.10 89.57 Q 310.94 113.00 291.94 129.19 Q 286.51 133.81 280.81 136.70 Q 276.53 138.88 269.81 140.06 Q 264.30 141.03 258.38 141.87 A 1.27 1.26 -2.0 0 1 256.93 140.53 Q 257.35 134.36 258.00 128.67 Q 258.74 122.12 260.31 117.00 Q 263.04 108.07 267.53 99.90 Q 270.93 93.70 275.22 89.08 Q 279.64 84.33 285.19 80.19 Q 292.62 74.64 300.56 71.81 Q 301.83 70.90 303.32 70.48 Q 310.65 68.36 317.00 66.36 Z"/>
<path fill="rgb(0,0,0)" fill-opacity="1.000" d="M 335.65 137.87 Q 337.53 138.44 340.25 139.00 Q 346.88 140.37 353.23 143.80 Q 358.87 146.86 364.79 151.23 Q 372.29 156.77 378.01 164.29 A 1.86 1.03 4.9 0 0 378.80 164.82 Q 380.18 165.34 380.34 167.32 A 1.01 0.98 -23.5 0 1 379.99 168.17 Q 373.49 173.60 367.73 179.48 Q 353.22 194.27 348.56 214.51 Q 346.02 225.53 347.53 236.75 Q 351.25 264.47 371.73 283.28 Q 378.54 289.54 388.91 293.36 A 1.27 1.26 19.7 0 1 389.67 294.96 Q 381.13 319.67 365.96 341.95 Q 358.06 353.57 349.06 362.56 Q 345.01 366.62 339.25 370.53 Q 334.39 373.84 328.87 375.54 Q 323.79 377.10 317.59 376.93 Q 308.84 376.68 300.42 373.86 Q 294.10 371.74 287.76 369.65 Q 279.43 366.89 274.93 366.15 Q 259.75 363.64 244.81 368.56 Q 234.12 373.01 223.01 376.19 Q 216.30 378.11 211.29 377.87 Q 201.12 377.38 192.81 371.94 Q 181.01 364.21 171.23 351.31 Q 147.75 320.34 136.00 283.25 Q 135.05 278.25 133.25 273.50 Q 132.20 267.74 131.10 261.99 Q 129.87 255.53 129.44 250.42 Q 128.00 233.25 129.25 220.25 Q 131.15 200.50 138.56 183.56 Q 141.60 176.61 147.08 168.61 Q 158.75 151.57 177.56 143.06 Q 180.06 142.36 182.43 141.34 Q 185.24 140.13 187.28 139.77 Q 204.24 136.81 221.25 140.00 Q 228.50 141.89 235.81 143.44 Q 238.75 144.78 241.87 145.47 Q 246.01 146.39 248.03 146.98 Q 260.91 150.75 274.25 147.75 Q 279.62 145.59 285.31 144.56 Q 298.53 139.47 312.50 137.00 Q 316.54 136.28 331.07 136.95 Q 332.91 137.03 335.65 137.87 Z"/>
</svg>