<svg xmlns="http://www.w3.org/2000/svg" version="1.1" viewBox="0 0 500 512">
<path fill="rgb(235,67,53)" fill-opacity="1.000" d="M 321.89 8.74 Q 380.46 24.62 425.11 66.12 A 0.53 0.53 44.3 0 1 425.12 66.89 L 354.33 136.05 A 0.96 0.95 -46.1 0 1 353.03 136.08 Q 313.07 100.81 260.99 98.83 Q 251.15 98.45 241.04 99.45 Q 187.04 104.77 148.31 142.81 Q 122.17 168.49 109.75 204.29 Q 108.06 204.06 107.06 202.69 Q 107.00 202.61 28.69 141.81 Q 27.65 141.01 27.04 141.00 Q 38.68 118.02 53.19 99.44 Q 106.69 30.92 190.54 8.43 Q 200.30 5.81 210.07 4.12 Q 256.24 -3.84 302.37 4.38 Q 312.34 6.16 321.89 8.74 Z"/>
<path fill="rgb(251,188,5)" fill-opacity="1.000" d="M 27.04 141.00 Q 27.65 141.01 28.69 141.81 Q 107.00 202.61 107.06 202.69 Q 108.06 204.06 109.75 204.29 Q 93.22 254.90 109.79 305.50 L 27.29 369.50 Q 1.65 318.34 0.00 260.94 Q 0.00 255.56 0.00 250.19 Q 1.51 192.53 27.04 141.00 Z"/>
<path fill="rgb(66,133,244)" fill-opacity="1.000" d="M 255.56 208.75 L 493.74 208.75 A 0.70 0.69 83.0 0 1 494.41 209.28 Q 496.73 219.16 497.80 228.58 Q 502.70 271.86 494.75 315.50 Q 488.36 350.59 473.11 381.84 Q 454.73 419.53 424.00 448.04 Q 422.82 448.05 422.19 447.06 Q 422.06 446.86 344.56 386.94 Q 343.87 386.41 343.75 385.79 Q 375.61 362.74 389.67 325.97 Q 393.66 315.54 395.32 304.00 A 0.65 0.65 -85.8 0 0 394.68 303.25 L 255.56 303.25 A 0.56 0.56 0.0 0 1 255.00 302.69 L 255.00 209.31 A 0.56 0.56 0.0 0 1 255.56 208.75 Z"/>
<path fill="rgb(52,168,83)" fill-opacity="1.000" d="M 109.79 305.50 Q 123.61 345.53 154.67 373.26 Q 162.19 379.97 170.43 385.53 Q 204.94 408.82 246.75 411.25 Q 267.65 412.47 290.17 408.09 Q 319.27 402.43 343.75 385.79 Q 343.87 386.41 344.56 386.94 Q 422.06 446.86 422.19 447.06 Q 422.82 448.05 424.00 448.04 Q 400.62 469.73 373.69 483.19 Q 339.83 500.10 302.94 506.19 Q 277.81 510.33 251.50 509.94 Q 186.16 508.97 129.50 477.00 Q 62.87 439.40 27.29 369.50 L 109.79 305.50 Z"/>
</svg>