<?xml version="1.0" encoding="UTF-8" standalone="no"?>
<!DOCTYPE svg PUBLIC "-//W3C//DTD SVG 1.1//EN" "http://www.w3.org/Graphics/SVG/1.1/DTD/svg11.dtd">
<svg xmlns="http://www.w3.org/2000/svg" version="1.1" viewBox="0 0 500 500">
<path fill="rgb(253,111,19)" fill-opacity="1.000" d="M 248.72 63.92 Q 250.20 63.03 251.60 64.04 Q 256.23 67.35 259.69 70.81 Q 302.15 113.35 344.44 156.06 Q 356.20 167.51 370.19 184.56 Q 387.97 206.25 397.06 234.94 Q 401.74 249.71 403.01 261.25 Q 405.25 281.62 402.92 301.85 Q 401.75 311.94 399.17 321.47 Q 387.49 364.49 354.50 395.29 Q 352.89 393.14 352.19 390.55 Q 352.07 390.14 352.21 389.58 Q 352.62 387.90 351.54 386.66 Q 351.21 386.29 351.10 385.82 Q 350.70 384.00 348.93 383.63 A 0.86 0.66 83.7 0 1 348.38 383.06 Q 348.28 382.70 347.99 382.57 Q 347.25 382.25 347.14 382.15 L 330.38 366.58 A 1.48 0.86 -12.6 0 0 329.50 366.30 Q 328.49 366.28 328.21 365.25 Q 350.83 343.80 360.25 313.00 Q 365.66 295.30 364.90 277.82 Q 364.52 269.10 363.28 262.22 Q 362.01 255.19 359.25 247.00 Q 352.73 227.67 342.56 213.69 Q 335.03 203.33 326.06 194.19 Q 293.09 161.41 260.44 128.31 Q 255.68 123.05 250.78 117.92 A 0.54 0.53 -41.3 0 0 250.05 117.88 Q 241.68 124.80 234.19 132.69 Q 199.73 167.33 165.29 202.00 Q 164.45 201.27 164.33 200.18 Q 164.27 199.63 164.02 199.28 Q 156.98 189.51 147.77 181.74 Q 142.65 177.42 139.00 171.79 Q 150.05 159.36 162.22 148.05 Q 174.98 136.19 175.01 136.17 Q 194.07 117.91 212.61 99.12 Q 228.20 83.32 243.81 67.56 Q 246.38 65.31 248.72 63.92 Z"/>
<path fill="rgb(253,148,75)" fill-opacity="1.000" d="M 139.00 171.79 Q 142.65 177.42 147.77 181.74 Q 156.98 189.51 164.02 199.28 Q 164.27 199.63 164.33 200.18 Q 164.45 201.27 165.29 202.00 Q 161.36 207.06 157.06 211.81 Q 135.79 239.91 133.50 276.50 Q 132.31 295.57 137.43 312.53 Q 140.15 321.58 144.71 331.14 Q 155.50 353.76 175.94 370.56 Q 206.18 395.44 244.00 396.80 Q 254.64 397.18 263.97 396.05 Q 277.94 394.36 292.19 388.69 Q 308.41 382.24 319.94 372.19 Q 324.11 368.76 328.21 365.25 Q 328.49 366.28 329.50 366.30 A 1.48 0.86 -12.6 0 1 330.38 366.58 L 347.14 382.15 Q 347.25 382.25 347.99 382.57 Q 348.28 382.70 348.38 383.06 A 0.86 0.66 83.7 0 0 348.93 383.63 Q 350.70 384.00 351.10 385.82 Q 351.21 386.29 351.54 386.66 Q 352.62 387.90 352.21 389.58 Q 352.07 390.14 352.19 390.55 Q 352.89 393.14 354.50 395.29 Q 326.03 421.44 290.19 430.94 Q 265.55 437.47 237.50 436.00 Q 232.09 435.20 226.67 434.47 Q 219.97 433.56 215.90 432.68 Q 190.12 427.08 169.31 414.19 Q 116.89 381.71 99.75 324.00 Q 94.03 304.75 94.33 282.50 Q 94.46 272.11 95.48 262.52 Q 98.61 233.05 113.06 207.06 Q 123.64 188.04 139.00 171.79 Z"/>
<path fill="rgb(253,111,19)" fill-opacity="1.000" d="M 252.81 173.69 Q 255.56 175.67 257.81 178.19 Q 282.75 202.14 305.52 228.14 Q 311.90 235.43 314.74 239.95 Q 318.48 245.90 321.69 253.31 Q 325.97 263.21 326.66 272.24 Q 327.42 282.34 326.12 292.26 Q 324.74 302.70 321.03 311.48 Q 314.94 325.86 303.25 336.79 L 301.26 336.54 A 1.48 1.20 -14.0 0 1 300.41 336.14 Q 285.71 320.18 284.31 319.44 Q 279.22 316.72 275.08 312.67 Q 274.10 311.71 272.75 311.46 Q 281.65 304.60 285.59 294.07 Q 290.77 280.21 285.15 267.29 Q 283.98 264.58 281.27 260.59 Q 277.75 255.41 276.75 254.25 Q 264.41 240.01 250.19 227.64 A 0.59 0.58 45.4 0 0 249.43 227.63 Q 235.23 239.43 222.75 253.04 Q 218.31 250.99 214.64 247.86 Q 213.59 246.97 212.11 244.55 Q 210.97 242.70 209.26 241.33 Q 207.22 239.71 207.19 239.68 Q 204.52 237.34 201.90 235.23 Q 201.74 235.10 201.23 234.53 L 197.88 230.82 Q 197.52 230.41 197.31 230.04 Q 196.96 229.41 196.31 229.38 A 1.19 0.72 -9.3 0 1 195.49 229.05 Q 194.60 227.91 194.29 226.50 Q 219.28 201.26 244.31 176.06 Q 245.86 174.87 247.29 173.54 Q 250.08 170.96 252.81 173.69 Z"/>
<path fill="rgb(254,148,74)" fill-opacity="1.000" d="M 194.29 226.50 Q 194.60 227.91 195.49 229.05 A 1.19 0.72 -9.3 0 0 196.31 229.38 Q 196.96 229.41 197.31 230.04 Q 197.52 230.41 197.88 230.82 L 201.23 234.53 Q 201.74 235.10 201.90 235.23 Q 204.52 237.34 207.19 239.68 Q 207.22 239.71 209.26 241.33 Q 210.97 242.70 212.11 244.55 Q 213.59 246.97 214.64 247.86 Q 218.31 250.99 222.75 253.04 Q 219.31 257.58 215.81 262.06 Q 208.76 274.21 210.58 287.42 Q 211.61 294.85 216.03 301.25 Q 220.30 307.44 226.50 312.25 Q 232.87 317.20 240.27 319.22 Q 247.57 321.21 255.29 319.63 Q 264.81 317.68 272.75 311.46 Q 274.10 311.71 275.08 312.67 Q 279.22 316.72 284.31 319.44 Q 285.71 320.18 300.41 336.14 A 1.48 1.20 -14.0 0 0 301.26 336.54 L 303.25 336.79 Q 283.52 356.42 255.75 358.61 Q 255.71 358.62 251.77 359.14 Q 250.04 359.37 248.29 359.21 Q 245.31 358.94 245.19 358.94 Q 219.48 357.66 199.06 340.19 Q 186.40 329.35 179.43 315.69 Q 175.05 307.10 172.91 296.84 Q 166.79 267.55 182.73 240.96 Q 187.54 232.96 194.29 226.50 Z"/>
</svg>